<svg xmlns="http://www.w3.org/2000/svg" viewBox="0 0 100 100">
  <circle cx="50" cy="50" r="50" fill="#ff5a5f"/>
  <path d="M50 25c4.53-3.75 10.85-6.04 19.27-6.04 12.58 0 21.69 7.56 23.65 17.34-0.96 12.55-16.61 24.84-40.92 37.41-21.73-11.27-38.29-24.25-41.05-36.54 1.33-10.98 11.21-18.21 23.65-18.21 8.42 0 14.28 2.2 19.27 6.04z" fill="white"/>
  <path d="M71 45c0 1.7-1.37 3.06-3.07 3.06h-4.16v4.16c0 1.69-1.36 3.06-3.06 3.06-1.69 0-3.06-1.37-3.06-3.06v-4.16h-4.16c-1.7 0-3.07-1.36-3.07-3.06 0-1.7 1.37-3.06 3.07-3.06h4.16v-4.16c0-1.7 1.37-3.06 3.06-3.06 1.7 0 3.06 1.36 3.06 3.06v4.16h4.16c1.7 0 3.07 1.36 3.07 3.06z" fill="white" opacity="0"/>
  <path d="M50 70c-1.9-1.46-3.71-2.87-5.43-4.25-3.78-3.03-7.11-5.98-9.93-8.93-3.33-3.49-5.42-6.76-6.25-9.72-0.4-1.43-0.51-2.77-0.31-4.01 0.2-1.21 0.68-2.29 1.46-3.28 1.54-1.95 3.85-3.19 6.52-3.19 2.19 0 4.19 0.83 5.93 2.47 0.86 0.81 1.62 1.82 2.28 3.01 0.35 0.63 0.66 1.29 0.93 1.99 0.26 0.68 0.48 1.39 0.66 2.11 0.18-0.72 0.4-1.43 0.66-2.11 0.27-0.7 0.58-1.36 0.93-1.99 0.66-1.19 1.42-2.2 2.28-3.01 1.74-1.64 3.74-2.47 5.93-2.47 2.67 0 4.98 1.24 6.52 3.19 0.78 0.99 1.26 2.07 1.46 3.28 0.2 1.24 0.09 2.58-0.31 4.01-0.83 2.96-2.92 6.23-6.25 9.72-2.82 2.95-6.15 5.9-9.93 8.93C53.71 67.13 51.9 68.54 50 70z" fill="white"/>
</svg> 