<svg xmlns="http://www.w3.org/2000/svg" viewBox="0 0 48 48">
  <path fill="#ff5a5f" d="M24 10.8c2.32-2.67 5.56-4.3 9.88-4.3 6.45 0 11.12 5.38 12.12 12.35-0.49 8.94-8.52 17.7-20.96 26.65-11.13-8.03-19.63-17.28-21.04-26.03 0.68-7.82 5.75-12.97 12.12-12.97 4.32 0 7.32 1.57 9.88 4.3z"/>
  <path fill="#ffffff" d="M24 40.5l-2-1.5c-0.84-0.63-20.5-15.38-20.5-24.5 0-6.63 5.37-12 12-12 3.31 0 6.28 1.38 8.5 3.5 2.22-2.12 5.19-3.5 8.5-3.5 6.63 0 12 5.37 12 12 0 9.12-19.66 23.88-20.5 24.5l-2 1.5zm-10.5-33c-4.14 0-7 2.86-7 7 0 4.34 7.83 12.46 17.5 20.33 9.67-7.87 17.5-16 17.5-20.33 0-4.14-2.86-7-7-7-3.35 0-6.27 2.38-7.16 5.61l-3.36 0.77-3.34-0.77c-0.89-3.23-3.8-5.61-7.14-5.61z"/>
</svg> 